<?xml version="1.0" encoding="UTF-8"?>
<svg xmlns="http://www.w3.org/2000/svg" xmlns:xlink="http://www.w3.org/1999/xlink" width="60pt" height="60pt" viewBox="0 0 60 60" version="1.1">
<g id="surface1">
<path style=" stroke:none;fill-rule:nonzero;fill:rgb(93.72549%,92.54902%,90.980392%);fill-opacity:1;" d="M 30 1 C 13.984375 1 1 13.984375 1 30 C 1 37.03125 3.503906 43.476562 7.667969 48.5 C 9.605469 40.601562 15.628906 34.324219 23.359375 31.992188 C 20.132812 29.84375 18 26.171875 18 22 C 18 15.371094 23.371094 10 30 10 C 36.628906 10 42 15.371094 42 22 C 42 26.171875 39.867188 29.84375 36.636719 31.992188 C 44.371094 34.324219 50.394531 40.601562 52.332031 48.5 C 56.496094 43.476562 59 37.03125 59 30 C 59 13.984375 46.015625 1 30 1 Z M 30 1 "/>
<path style=" stroke:none;fill-rule:nonzero;fill:rgb(77.647059%,76.470588%,74.117647%);fill-opacity:1;" d="M 36.636719 31.992188 C 39.867188 29.84375 42 26.171875 42 22 C 42 15.371094 36.628906 10 30 10 C 23.371094 10 18 15.371094 18 22 C 18 26.171875 20.132812 29.84375 23.363281 31.992188 C 15.628906 34.324219 9.605469 40.601562 7.667969 48.5 C 7.984375 48.882812 8.3125 49.253906 8.648438 49.617188 C 8.730469 49.707031 8.8125 49.792969 8.898438 49.878906 C 9.15625 50.152344 9.414062 50.421875 9.683594 50.6875 C 9.796875 50.796875 9.90625 50.902344 10.019531 51.007812 C 10.269531 51.242188 10.519531 51.476562 10.777344 51.703125 C 10.902344 51.816406 11.03125 51.925781 11.160156 52.035156 C 11.410156 52.253906 11.664062 52.464844 11.925781 52.667969 C 12.058594 52.777344 12.195312 52.886719 12.335938 52.992188 C 12.597656 53.195312 12.863281 53.390625 13.132812 53.582031 C 13.269531 53.679688 13.40625 53.78125 13.546875 53.878906 C 13.832031 54.074219 14.121094 54.261719 14.410156 54.449219 C 14.542969 54.53125 14.671875 54.617188 14.804688 54.699219 C 15.140625 54.90625 15.480469 55.105469 15.824219 55.300781 C 15.917969 55.351562 16.007812 55.40625 16.097656 55.453125 C 16.542969 55.699219 16.996094 55.933594 17.457031 56.152344 C 17.46875 56.160156 17.480469 56.164062 17.492188 56.167969 C 17.929688 56.378906 18.375 56.578125 18.828125 56.765625 C 18.96875 56.824219 19.109375 56.878906 19.25 56.933594 C 19.578125 57.0625 19.902344 57.191406 20.234375 57.308594 C 20.410156 57.371094 20.589844 57.429688 20.765625 57.488281 C 21.066406 57.589844 21.371094 57.691406 21.679688 57.78125 C 21.871094 57.839844 22.066406 57.894531 22.261719 57.945312 C 22.558594 58.027344 22.855469 58.105469 23.15625 58.179688 C 23.359375 58.230469 23.566406 58.277344 23.769531 58.320312 C 24.070312 58.386719 24.371094 58.445312 24.675781 58.503906 C 24.882812 58.539062 25.089844 58.578125 25.296875 58.613281 C 25.609375 58.664062 25.925781 58.707031 26.242188 58.746094 C 26.441406 58.773438 26.640625 58.804688 26.84375 58.824219 C 27.191406 58.863281 27.546875 58.890625 27.898438 58.914062 C 28.070312 58.925781 28.238281 58.945312 28.410156 58.953125 C 28.9375 58.984375 29.464844 59 30 59 C 30.535156 59 31.0625 58.984375 31.589844 58.953125 C 31.761719 58.945312 31.929688 58.929688 32.101562 58.914062 C 32.453125 58.890625 32.808594 58.863281 33.15625 58.824219 C 33.359375 58.804688 33.558594 58.777344 33.757812 58.75 C 34.074219 58.710938 34.390625 58.664062 34.703125 58.613281 C 34.910156 58.582031 35.117188 58.542969 35.324219 58.503906 C 35.628906 58.449219 35.929688 58.390625 36.230469 58.324219 C 36.433594 58.277344 36.640625 58.230469 36.84375 58.183594 C 37.140625 58.109375 37.441406 58.03125 37.738281 57.949219 C 37.933594 57.894531 38.128906 57.839844 38.320312 57.78125 C 38.628906 57.691406 38.933594 57.59375 39.234375 57.492188 C 39.410156 57.429688 39.589844 57.375 39.765625 57.3125 C 40.097656 57.191406 40.421875 57.066406 40.75 56.933594 C 40.890625 56.878906 41.03125 56.824219 41.171875 56.769531 C 41.621094 56.578125 42.066406 56.382812 42.503906 56.171875 C 42.515625 56.167969 42.53125 56.160156 42.542969 56.15625 C 43.003906 55.933594 43.457031 55.699219 43.902344 55.457031 C 43.992188 55.40625 44.082031 55.351562 44.175781 55.300781 C 44.519531 55.105469 44.859375 54.90625 45.195312 54.699219 C 45.328125 54.621094 45.457031 54.535156 45.589844 54.449219 C 45.878906 54.265625 46.167969 54.074219 46.453125 53.878906 C 46.59375 53.78125 46.730469 53.683594 46.867188 53.582031 C 47.136719 53.390625 47.402344 53.195312 47.664062 52.992188 C 47.804688 52.886719 47.941406 52.777344 48.074219 52.671875 C 48.335938 52.464844 48.589844 52.253906 48.839844 52.039062 C 48.96875 51.929688 49.097656 51.816406 49.222656 51.703125 C 49.480469 51.476562 49.730469 51.246094 49.980469 51.007812 C 50.089844 50.902344 50.203125 50.796875 50.316406 50.6875 C 50.585938 50.425781 50.847656 50.152344 51.101562 49.878906 C 51.183594 49.792969 51.269531 49.707031 51.351562 49.617188 C 51.6875 49.253906 52.015625 48.882812 52.332031 48.5 C 50.394531 40.601562 44.371094 34.324219 36.636719 31.992188 Z M 36.636719 31.992188 "/>
<path style=" stroke:none;fill-rule:nonzero;fill:rgb(29.411765%,25.490196%,22.745098%);fill-opacity:1;" d="M 30 0 C 13.457031 0 0 13.457031 0 30 C 0 37.246094 2.582031 43.898438 6.875 49.089844 C 6.886719 49.101562 6.886719 49.121094 6.898438 49.136719 C 9.996094 52.871094 13.890625 55.738281 18.226562 57.589844 C 18.277344 57.609375 18.324219 57.632812 18.375 57.652344 C 18.726562 57.800781 19.082031 57.9375 19.4375 58.074219 C 19.578125 58.125 19.71875 58.179688 19.859375 58.230469 C 20.164062 58.339844 20.476562 58.445312 20.785156 58.546875 C 20.984375 58.609375 21.183594 58.671875 21.386719 58.730469 C 21.660156 58.8125 21.9375 58.894531 22.214844 58.96875 C 22.457031 59.035156 22.703125 59.09375 22.949219 59.152344 C 23.199219 59.214844 23.449219 59.273438 23.699219 59.328125 C 23.980469 59.386719 24.261719 59.441406 24.546875 59.492188 C 24.773438 59.535156 25.003906 59.578125 25.230469 59.613281 C 25.546875 59.664062 25.863281 59.707031 26.183594 59.746094 C 26.386719 59.773438 26.589844 59.804688 26.796875 59.824219 C 27.15625 59.863281 27.519531 59.890625 27.882812 59.914062 C 28.054688 59.925781 28.222656 59.945312 28.390625 59.953125 C 28.921875 59.984375 29.460938 60 30 60 C 30.539062 60 31.078125 59.984375 31.609375 59.957031 C 31.78125 59.945312 31.949219 59.929688 32.117188 59.917969 C 32.480469 59.890625 32.84375 59.863281 33.203125 59.828125 C 33.410156 59.804688 33.613281 59.773438 33.820312 59.75 C 34.136719 59.707031 34.453125 59.667969 34.769531 59.617188 C 35 59.578125 35.226562 59.535156 35.453125 59.492188 C 35.738281 59.441406 36.019531 59.390625 36.300781 59.328125 C 36.554688 59.273438 36.800781 59.214844 37.050781 59.15625 C 37.296875 59.097656 37.542969 59.035156 37.789062 58.96875 C 38.066406 58.894531 38.34375 58.816406 38.617188 58.734375 C 38.816406 58.675781 39.015625 58.609375 39.214844 58.546875 C 39.527344 58.445312 39.835938 58.34375 40.144531 58.234375 C 40.285156 58.183594 40.425781 58.128906 40.566406 58.074219 C 40.921875 57.941406 41.277344 57.804688 41.628906 57.65625 C 41.675781 57.636719 41.726562 57.613281 41.777344 57.589844 C 46.113281 55.738281 50.003906 52.875 53.105469 49.136719 C 53.117188 49.125 53.117188 49.105469 53.128906 49.089844 C 57.417969 43.898438 60 37.246094 60 30 C 60 13.457031 46.542969 0 30 0 Z M 35.984375 31.21875 C 35.589844 31.472656 35.179688 31.703125 34.757812 31.902344 C 34.710938 31.925781 34.660156 31.949219 34.609375 31.972656 C 31.714844 33.289062 28.285156 33.289062 25.390625 31.972656 C 25.339844 31.949219 25.289062 31.925781 25.242188 31.902344 C 24.820312 31.703125 24.410156 31.472656 24.015625 31.21875 C 21 29.253906 19 25.859375 19 22 C 19 15.933594 23.933594 11 30 11 C 36.066406 11 41 15.933594 41 22 C 41 25.859375 39 29.253906 35.984375 31.21875 Z M 23.644531 33.328125 C 23.726562 33.375 23.8125 33.425781 23.894531 33.472656 C 24.195312 33.628906 24.496094 33.777344 24.804688 33.910156 C 25.042969 34.015625 25.285156 34.101562 25.53125 34.191406 C 25.578125 34.210938 25.628906 34.226562 25.675781 34.246094 C 27.03125 34.726562 28.480469 35 30 35 C 31.519531 35 32.96875 34.726562 34.324219 34.246094 C 34.371094 34.226562 34.421875 34.210938 34.46875 34.191406 C 34.710938 34.101562 34.957031 34.015625 35.195312 33.910156 C 35.503906 33.777344 35.804688 33.628906 36.101562 33.472656 C 36.1875 33.425781 36.269531 33.375 36.355469 33.328125 C 36.496094 33.25 36.644531 33.171875 36.785156 33.085938 C 43.824219 35.371094 49.296875 41.109375 51.230469 48.226562 C 48.726562 51.136719 45.644531 53.53125 42.15625 55.21875 C 42.140625 55.226562 42.128906 55.234375 42.113281 55.242188 C 41.757812 55.414062 41.394531 55.574219 41.027344 55.734375 C 40.945312 55.769531 40.863281 55.804688 40.777344 55.839844 C 40.460938 55.972656 40.136719 56.101562 39.808594 56.222656 C 39.671875 56.273438 39.535156 56.324219 39.398438 56.371094 C 39.109375 56.476562 38.820312 56.574219 38.527344 56.667969 C 38.347656 56.726562 38.164062 56.78125 37.980469 56.835938 C 37.71875 56.914062 37.460938 56.988281 37.195312 57.058594 C 36.972656 57.117188 36.75 57.171875 36.523438 57.222656 C 36.289062 57.28125 36.054688 57.335938 35.820312 57.386719 C 35.558594 57.441406 35.300781 57.488281 35.039062 57.535156 C 34.828125 57.574219 34.617188 57.617188 34.40625 57.648438 C 34.113281 57.695312 33.816406 57.734375 33.519531 57.769531 C 33.335938 57.792969 33.148438 57.820312 32.960938 57.84375 C 32.621094 57.878906 32.28125 57.902344 31.941406 57.925781 C 31.792969 57.933594 31.640625 57.953125 31.488281 57.960938 C 30.992188 57.984375 30.496094 58 30 58 C 29.503906 58 29.007812 57.984375 28.511719 57.960938 C 28.359375 57.953125 28.210938 57.9375 28.058594 57.925781 C 27.71875 57.902344 27.378906 57.878906 27.042969 57.84375 C 26.851562 57.820312 26.667969 57.792969 26.480469 57.769531 C 26.183594 57.734375 25.890625 57.695312 25.597656 57.648438 C 25.382812 57.617188 25.171875 57.574219 24.960938 57.535156 C 24.699219 57.488281 24.441406 57.441406 24.183594 57.386719 C 23.945312 57.335938 23.710938 57.28125 23.476562 57.222656 C 23.253906 57.171875 23.027344 57.117188 22.804688 57.058594 C 22.542969 56.988281 22.28125 56.910156 22.019531 56.835938 C 21.839844 56.78125 21.65625 56.726562 21.472656 56.667969 C 21.179688 56.574219 20.890625 56.476562 20.601562 56.371094 C 20.464844 56.324219 20.328125 56.273438 20.191406 56.222656 C 19.867188 56.101562 19.542969 55.972656 19.222656 55.839844 C 19.140625 55.804688 19.058594 55.769531 18.976562 55.734375 C 18.609375 55.578125 18.246094 55.414062 17.886719 55.242188 C 17.871094 55.234375 17.859375 55.230469 17.84375 55.222656 C 14.355469 53.53125 11.273438 51.136719 8.773438 48.226562 C 10.703125 41.109375 16.175781 35.371094 23.21875 33.089844 C 23.355469 33.171875 23.5 33.25 23.644531 33.328125 Z M 52.730469 46.324219 C 50.460938 39.628906 45.289062 34.21875 38.683594 31.648438 C 41.324219 29.269531 43 25.828125 43 22 C 43 14.832031 37.167969 9 30 9 C 22.832031 9 17 14.832031 17 22 C 17 25.828125 18.675781 29.269531 21.320312 31.648438 C 14.710938 34.21875 9.539062 39.628906 7.273438 46.324219 C 3.960938 41.722656 2 36.089844 2 30 C 2 14.5625 14.5625 2 30 2 C 45.4375 2 58 14.5625 58 30 C 58 36.089844 56.039062 41.722656 52.730469 46.324219 Z M 52.730469 46.324219 "/>
</g>
</svg>
